<svg xmlns="http://www.w3.org/2000/svg" viewBox="0 0 567 70" width="567" height="70">
  <rect x="7" y="0" width="7" height="7" fill="#949494" opacity="1.0"/>
  <rect x="14" y="0" width="7" height="7" fill="#949494" opacity="1.0"/>
  <rect x="21" y="0" width="7" height="7" fill="#9e9e9e" opacity="1.0"/>
  <rect x="119" y="0" width="7" height="7" fill="#bcbcbc" opacity="1.0"/>
  <rect x="126" y="0" width="7" height="7" fill="#bcbcbc" opacity="1.0"/>
  <rect x="133" y="0" width="7" height="7" fill="#bcbcbc" opacity="1.0"/>
  <rect x="140" y="0" width="7" height="7" fill="#bcbcbc" opacity="1.0"/>
  <rect x="147" y="0" width="7" height="7" fill="#c6c6c6" opacity="1.0"/>
  <rect x="154" y="0" width="7" height="7" fill="#c6c6c6" opacity="1.0"/>
  <rect x="511" y="0" width="7" height="7" fill="#a8a8a8" opacity="1.0"/>
  <rect x="518" y="0" width="7" height="7" fill="#9e9e9e" opacity="1.0"/>
  <rect x="525" y="0" width="7" height="7" fill="#9e9e9e" opacity="1.0"/>
  <rect x="532" y="0" width="7" height="7" fill="#9e9e9e" opacity="1.0"/>
  <rect x="539" y="0" width="7" height="7" fill="#9e9e9e" opacity="1.0"/>
  <rect x="0" y="7" width="7" height="7" fill="#949494" opacity="0.3"/>
  <rect x="7" y="7" width="7" height="7" fill="#949494" opacity="0.3"/>
  <rect x="14" y="7" width="7" height="7" fill="#949494" opacity="0.3"/>
  <rect x="21" y="7" width="7" height="7" fill="#9e9e9e" opacity="1.0"/>
  <rect x="28" y="7" width="7" height="7" fill="#9e9e9e" opacity="1.0"/>
  <rect x="35" y="7" width="7" height="7" fill="#9e9e9e" opacity="1.0"/>
  <rect x="112" y="7" width="7" height="7" fill="#bcbcbc" opacity="1.0"/>
  <rect x="119" y="7" width="7" height="7" fill="#bcbcbc" opacity="1.0"/>
  <rect x="126" y="7" width="7" height="7" fill="#bcbcbc" opacity="1.0"/>
  <rect x="133" y="7" width="7" height="7" fill="#bcbcbc" opacity="0.3"/>
  <rect x="140" y="7" width="7" height="7" fill="#bcbcbc" opacity="0.3"/>
  <rect x="147" y="7" width="7" height="7" fill="#c6c6c6" opacity="1.0"/>
  <rect x="154" y="7" width="7" height="7" fill="#c6c6c6" opacity="1.0"/>
  <rect x="161" y="7" width="7" height="7" fill="#c6c6c6" opacity="1.0"/>
  <rect x="504" y="7" width="7" height="7" fill="#a8a8a8" opacity="0.3"/>
  <rect x="511" y="7" width="7" height="7" fill="#a8a8a8" opacity="0.3"/>
  <rect x="518" y="7" width="7" height="7" fill="#9e9e9e" opacity="1.0"/>
  <rect x="525" y="7" width="7" height="7" fill="#9e9e9e" opacity="1.0"/>
  <rect x="532" y="7" width="7" height="7" fill="#9e9e9e" opacity="1.0"/>
  <rect x="14" y="14" width="7" height="7" fill="#949494" opacity="0.3"/>
  <rect x="21" y="14" width="7" height="7" fill="#9e9e9e" opacity="0.3"/>
  <rect x="28" y="14" width="7" height="7" fill="#9e9e9e" opacity="0.3"/>
  <rect x="35" y="14" width="7" height="7" fill="#9e9e9e" opacity="1.0"/>
  <rect x="42" y="14" width="7" height="7" fill="#9e9e9e" opacity="1.0"/>
  <rect x="49" y="14" width="7" height="7" fill="#a8a8a8" opacity="1.0"/>
  <rect x="105" y="14" width="7" height="7" fill="#b2b2b2" opacity="0.3"/>
  <rect x="112" y="14" width="7" height="7" fill="#bcbcbc" opacity="1.0"/>
  <rect x="119" y="14" width="7" height="7" fill="#bcbcbc" opacity="1.0"/>
  <rect x="126" y="14" width="7" height="7" fill="#bcbcbc" opacity="1.0"/>
  <rect x="140" y="14" width="7" height="7" fill="#bcbcbc" opacity="0.3"/>
  <rect x="147" y="14" width="7" height="7" fill="#c6c6c6" opacity="0.3"/>
  <rect x="154" y="14" width="7" height="7" fill="#c6c6c6" opacity="0.3"/>
  <rect x="175" y="14" width="7" height="7" fill="#d0d0d0" opacity="1.0"/>
  <rect x="182" y="14" width="7" height="7" fill="#d0d0d0" opacity="1.0"/>
  <rect x="189" y="14" width="7" height="7" fill="#d0d0d0" opacity="1.0"/>
  <rect x="196" y="14" width="7" height="7" fill="#d0d0d0" opacity="1.0"/>
  <rect x="203" y="14" width="7" height="7" fill="#dadada" opacity="1.0"/>
  <rect x="210" y="14" width="7" height="7" fill="#dadada" opacity="1.0"/>
  <rect x="217" y="14" width="7" height="7" fill="#dadada" opacity="1.0"/>
  <rect x="224" y="14" width="7" height="7" fill="#dadada" opacity="1.0"/>
  <rect x="252" y="14" width="7" height="7" fill="#e4e4e4" opacity="1.0"/>
  <rect x="259" y="14" width="7" height="7" fill="#e4e4e4" opacity="1.0"/>
  <rect x="266" y="14" width="7" height="7" fill="#eeeeee" opacity="1.0"/>
  <rect x="273" y="14" width="7" height="7" fill="#eeeeee" opacity="1.0"/>
  <rect x="280" y="14" width="7" height="7" fill="#eeeeee" opacity="1.0"/>
  <rect x="287" y="14" width="7" height="7" fill="#eeeeee" opacity="1.0"/>
  <rect x="315" y="14" width="7" height="7" fill="#e4e4e4" opacity="1.0"/>
  <rect x="322" y="14" width="7" height="7" fill="#e4e4e4" opacity="1.0"/>
  <rect x="329" y="14" width="7" height="7" fill="#dadada" opacity="1.0"/>
  <rect x="336" y="14" width="7" height="7" fill="#dadada" opacity="1.0"/>
  <rect x="343" y="14" width="7" height="7" fill="#dadada" opacity="1.0"/>
  <rect x="350" y="14" width="7" height="7" fill="#dadada" opacity="1.0"/>
  <rect x="378" y="14" width="7" height="7" fill="#d0d0d0" opacity="1.0"/>
  <rect x="385" y="14" width="7" height="7" fill="#d0d0d0" opacity="1.0"/>
  <rect x="392" y="14" width="7" height="7" fill="#c6c6c6" opacity="1.0"/>
  <rect x="399" y="14" width="7" height="7" fill="#c6c6c6" opacity="1.0"/>
  <rect x="406" y="14" width="7" height="7" fill="#c6c6c6" opacity="1.0"/>
  <rect x="413" y="14" width="7" height="7" fill="#c6c6c6" opacity="1.0"/>
  <rect x="448" y="14" width="7" height="7" fill="#bcbcbc" opacity="1.0"/>
  <rect x="455" y="14" width="7" height="7" fill="#b2b2b2" opacity="1.0"/>
  <rect x="462" y="14" width="7" height="7" fill="#b2b2b2" opacity="1.0"/>
  <rect x="469" y="14" width="7" height="7" fill="#b2b2b2" opacity="1.0"/>
  <rect x="476" y="14" width="7" height="7" fill="#b2b2b2" opacity="1.0"/>
  <rect x="483" y="14" width="7" height="7" fill="#a8a8a8" opacity="1.0"/>
  <rect x="504" y="14" width="7" height="7" fill="#a8a8a8" opacity="1.0"/>
  <rect x="511" y="14" width="7" height="7" fill="#a8a8a8" opacity="1.0"/>
  <rect x="518" y="14" width="7" height="7" fill="#9e9e9e" opacity="1.0"/>
  <rect x="525" y="14" width="7" height="7" fill="#9e9e9e" opacity="1.0"/>
  <rect x="532" y="14" width="7" height="7" fill="#9e9e9e" opacity="1.0"/>
  <rect x="539" y="14" width="7" height="7" fill="#9e9e9e" opacity="1.0"/>
  <rect x="546" y="14" width="7" height="7" fill="#949494" opacity="1.0"/>
  <rect x="28" y="21" width="7" height="7" fill="#9e9e9e" opacity="0.3"/>
  <rect x="35" y="21" width="7" height="7" fill="#9e9e9e" opacity="0.3"/>
  <rect x="42" y="21" width="7" height="7" fill="#9e9e9e" opacity="0.3"/>
  <rect x="49" y="21" width="7" height="7" fill="#a8a8a8" opacity="1.0"/>
  <rect x="56" y="21" width="7" height="7" fill="#a8a8a8" opacity="1.0"/>
  <rect x="63" y="21" width="7" height="7" fill="#a8a8a8" opacity="1.0"/>
  <rect x="98" y="21" width="7" height="7" fill="#b2b2b2" opacity="1.0"/>
  <rect x="105" y="21" width="7" height="7" fill="#b2b2b2" opacity="1.0"/>
  <rect x="112" y="21" width="7" height="7" fill="#bcbcbc" opacity="1.0"/>
  <rect x="119" y="21" width="7" height="7" fill="#bcbcbc" opacity="1.0"/>
  <rect x="126" y="21" width="7" height="7" fill="#bcbcbc" opacity="1.0"/>
  <rect x="133" y="21" width="7" height="7" fill="#bcbcbc" opacity="1.0"/>
  <rect x="140" y="21" width="7" height="7" fill="#bcbcbc" opacity="1.0"/>
  <rect x="168" y="21" width="7" height="7" fill="#c6c6c6" opacity="0.3"/>
  <rect x="175" y="21" width="7" height="7" fill="#d0d0d0" opacity="0.3"/>
  <rect x="182" y="21" width="7" height="7" fill="#d0d0d0" opacity="1.0"/>
  <rect x="189" y="21" width="7" height="7" fill="#d0d0d0" opacity="1.0"/>
  <rect x="196" y="21" width="7" height="7" fill="#d0d0d0" opacity="1.0"/>
  <rect x="203" y="21" width="7" height="7" fill="#dadada" opacity="0.3"/>
  <rect x="210" y="21" width="7" height="7" fill="#dadada" opacity="0.3"/>
  <rect x="217" y="21" width="7" height="7" fill="#dadada" opacity="1.0"/>
  <rect x="224" y="21" width="7" height="7" fill="#dadada" opacity="1.0"/>
  <rect x="231" y="21" width="7" height="7" fill="#dadada" opacity="1.0"/>
  <rect x="245" y="21" width="7" height="7" fill="#e4e4e4" opacity="1.0"/>
  <rect x="252" y="21" width="7" height="7" fill="#e4e4e4" opacity="1.0"/>
  <rect x="259" y="21" width="7" height="7" fill="#e4e4e4" opacity="1.0"/>
  <rect x="266" y="21" width="7" height="7" fill="#eeeeee" opacity="0.3"/>
  <rect x="273" y="21" width="7" height="7" fill="#eeeeee" opacity="0.3"/>
  <rect x="280" y="21" width="7" height="7" fill="#eeeeee" opacity="1.0"/>
  <rect x="287" y="21" width="7" height="7" fill="#eeeeee" opacity="1.0"/>
  <rect x="294" y="21" width="7" height="7" fill="#eeeeee" opacity="1.0"/>
  <rect x="308" y="21" width="7" height="7" fill="#e4e4e4" opacity="1.0"/>
  <rect x="315" y="21" width="7" height="7" fill="#e4e4e4" opacity="1.0"/>
  <rect x="322" y="21" width="7" height="7" fill="#e4e4e4" opacity="1.0"/>
  <rect x="329" y="21" width="7" height="7" fill="#dadada" opacity="0.3"/>
  <rect x="336" y="21" width="7" height="7" fill="#dadada" opacity="0.3"/>
  <rect x="343" y="21" width="7" height="7" fill="#dadada" opacity="1.0"/>
  <rect x="350" y="21" width="7" height="7" fill="#dadada" opacity="1.0"/>
  <rect x="357" y="21" width="7" height="7" fill="#dadada" opacity="1.0"/>
  <rect x="371" y="21" width="7" height="7" fill="#d0d0d0" opacity="0.3"/>
  <rect x="378" y="21" width="7" height="7" fill="#d0d0d0" opacity="0.3"/>
  <rect x="385" y="21" width="7" height="7" fill="#d0d0d0" opacity="0.3"/>
  <rect x="392" y="21" width="7" height="7" fill="#c6c6c6" opacity="0.3"/>
  <rect x="399" y="21" width="7" height="7" fill="#c6c6c6" opacity="0.3"/>
  <rect x="406" y="21" width="7" height="7" fill="#c6c6c6" opacity="1.0"/>
  <rect x="413" y="21" width="7" height="7" fill="#c6c6c6" opacity="1.0"/>
  <rect x="420" y="21" width="7" height="7" fill="#c6c6c6" opacity="1.0"/>
  <rect x="441" y="21" width="7" height="7" fill="#bcbcbc" opacity="1.0"/>
  <rect x="448" y="21" width="7" height="7" fill="#bcbcbc" opacity="1.0"/>
  <rect x="455" y="21" width="7" height="7" fill="#b2b2b2" opacity="1.0"/>
  <rect x="462" y="21" width="7" height="7" fill="#b2b2b2" opacity="0.3"/>
  <rect x="469" y="21" width="7" height="7" fill="#b2b2b2" opacity="0.3"/>
  <rect x="476" y="21" width="7" height="7" fill="#b2b2b2" opacity="1.0"/>
  <rect x="483" y="21" width="7" height="7" fill="#a8a8a8" opacity="1.0"/>
  <rect x="490" y="21" width="7" height="7" fill="#a8a8a8" opacity="1.0"/>
  <rect x="497" y="21" width="7" height="7" fill="#a8a8a8" opacity="0.3"/>
  <rect x="504" y="21" width="7" height="7" fill="#a8a8a8" opacity="0.3"/>
  <rect x="511" y="21" width="7" height="7" fill="#a8a8a8" opacity="0.3"/>
  <rect x="518" y="21" width="7" height="7" fill="#9e9e9e" opacity="1.0"/>
  <rect x="525" y="21" width="7" height="7" fill="#9e9e9e" opacity="1.0"/>
  <rect x="532" y="21" width="7" height="7" fill="#9e9e9e" opacity="1.0"/>
  <rect x="539" y="21" width="7" height="7" fill="#9e9e9e" opacity="0.3"/>
  <rect x="35" y="28" width="7" height="7" fill="#9e9e9e" opacity="1.0"/>
  <rect x="42" y="28" width="7" height="7" fill="#9e9e9e" opacity="1.0"/>
  <rect x="49" y="28" width="7" height="7" fill="#a8a8a8" opacity="1.0"/>
  <rect x="56" y="28" width="7" height="7" fill="#a8a8a8" opacity="0.3"/>
  <rect x="91" y="28" width="7" height="7" fill="#b2b2b2" opacity="0.3"/>
  <rect x="98" y="28" width="7" height="7" fill="#b2b2b2" opacity="0.3"/>
  <rect x="105" y="28" width="7" height="7" fill="#b2b2b2" opacity="0.3"/>
  <rect x="112" y="28" width="7" height="7" fill="#bcbcbc" opacity="1.0"/>
  <rect x="119" y="28" width="7" height="7" fill="#bcbcbc" opacity="1.0"/>
  <rect x="126" y="28" width="7" height="7" fill="#bcbcbc" opacity="1.0"/>
  <rect x="133" y="28" width="7" height="7" fill="#bcbcbc" opacity="0.3"/>
  <rect x="175" y="28" width="7" height="7" fill="#d0d0d0" opacity="0.3"/>
  <rect x="182" y="28" width="7" height="7" fill="#d0d0d0" opacity="1.0"/>
  <rect x="189" y="28" width="7" height="7" fill="#d0d0d0" opacity="1.0"/>
  <rect x="196" y="28" width="7" height="7" fill="#d0d0d0" opacity="1.0"/>
  <rect x="210" y="28" width="7" height="7" fill="#dadada" opacity="0.3"/>
  <rect x="217" y="28" width="7" height="7" fill="#dadada" opacity="0.3"/>
  <rect x="224" y="28" width="7" height="7" fill="#dadada" opacity="0.3"/>
  <rect x="238" y="28" width="7" height="7" fill="#e4e4e4" opacity="0.3"/>
  <rect x="245" y="28" width="7" height="7" fill="#e4e4e4" opacity="1.0"/>
  <rect x="252" y="28" width="7" height="7" fill="#e4e4e4" opacity="1.0"/>
  <rect x="259" y="28" width="7" height="7" fill="#e4e4e4" opacity="1.0"/>
  <rect x="266" y="28" width="7" height="7" fill="#eeeeee" opacity="1.0"/>
  <rect x="273" y="28" width="7" height="7" fill="#eeeeee" opacity="1.0"/>
  <rect x="280" y="28" width="7" height="7" fill="#eeeeee" opacity="1.0"/>
  <rect x="287" y="28" width="7" height="7" fill="#eeeeee" opacity="1.0"/>
  <rect x="301" y="28" width="7" height="7" fill="#e4e4e4" opacity="0.3"/>
  <rect x="308" y="28" width="7" height="7" fill="#e4e4e4" opacity="1.0"/>
  <rect x="315" y="28" width="7" height="7" fill="#e4e4e4" opacity="1.0"/>
  <rect x="322" y="28" width="7" height="7" fill="#e4e4e4" opacity="1.0"/>
  <rect x="329" y="28" width="7" height="7" fill="#dadada" opacity="1.0"/>
  <rect x="336" y="28" width="7" height="7" fill="#dadada" opacity="1.0"/>
  <rect x="343" y="28" width="7" height="7" fill="#dadada" opacity="1.0"/>
  <rect x="350" y="28" width="7" height="7" fill="#dadada" opacity="1.0"/>
  <rect x="378" y="28" width="7" height="7" fill="#d0d0d0" opacity="1.0"/>
  <rect x="385" y="28" width="7" height="7" fill="#d0d0d0" opacity="1.0"/>
  <rect x="392" y="28" width="7" height="7" fill="#c6c6c6" opacity="1.0"/>
  <rect x="399" y="28" width="7" height="7" fill="#c6c6c6" opacity="1.0"/>
  <rect x="406" y="28" width="7" height="7" fill="#c6c6c6" opacity="1.0"/>
  <rect x="413" y="28" width="7" height="7" fill="#c6c6c6" opacity="1.0"/>
  <rect x="420" y="28" width="7" height="7" fill="#c6c6c6" opacity="1.0"/>
  <rect x="434" y="28" width="7" height="7" fill="#bcbcbc" opacity="0.3"/>
  <rect x="441" y="28" width="7" height="7" fill="#bcbcbc" opacity="1.0"/>
  <rect x="448" y="28" width="7" height="7" fill="#bcbcbc" opacity="1.0"/>
  <rect x="455" y="28" width="7" height="7" fill="#b2b2b2" opacity="1.0"/>
  <rect x="469" y="28" width="7" height="7" fill="#b2b2b2" opacity="0.3"/>
  <rect x="476" y="28" width="7" height="7" fill="#b2b2b2" opacity="0.3"/>
  <rect x="483" y="28" width="7" height="7" fill="#a8a8a8" opacity="0.3"/>
  <rect x="511" y="28" width="7" height="7" fill="#a8a8a8" opacity="0.3"/>
  <rect x="518" y="28" width="7" height="7" fill="#9e9e9e" opacity="1.0"/>
  <rect x="525" y="28" width="7" height="7" fill="#9e9e9e" opacity="1.0"/>
  <rect x="532" y="28" width="7" height="7" fill="#9e9e9e" opacity="1.0"/>
  <rect x="21" y="35" width="7" height="7" fill="#9e9e9e" opacity="1.0"/>
  <rect x="28" y="35" width="7" height="7" fill="#9e9e9e" opacity="1.0"/>
  <rect x="35" y="35" width="7" height="7" fill="#9e9e9e" opacity="1.0"/>
  <rect x="42" y="35" width="7" height="7" fill="#9e9e9e" opacity="0.3"/>
  <rect x="105" y="35" width="7" height="7" fill="#b2b2b2" opacity="0.3"/>
  <rect x="112" y="35" width="7" height="7" fill="#bcbcbc" opacity="1.0"/>
  <rect x="119" y="35" width="7" height="7" fill="#bcbcbc" opacity="1.0"/>
  <rect x="126" y="35" width="7" height="7" fill="#bcbcbc" opacity="1.0"/>
  <rect x="175" y="35" width="7" height="7" fill="#d0d0d0" opacity="0.3"/>
  <rect x="182" y="35" width="7" height="7" fill="#d0d0d0" opacity="1.0"/>
  <rect x="189" y="35" width="7" height="7" fill="#d0d0d0" opacity="1.0"/>
  <rect x="196" y="35" width="7" height="7" fill="#d0d0d0" opacity="1.0"/>
  <rect x="238" y="35" width="7" height="7" fill="#e4e4e4" opacity="0.3"/>
  <rect x="245" y="35" width="7" height="7" fill="#e4e4e4" opacity="1.0"/>
  <rect x="252" y="35" width="7" height="7" fill="#e4e4e4" opacity="1.0"/>
  <rect x="259" y="35" width="7" height="7" fill="#e4e4e4" opacity="1.0"/>
  <rect x="266" y="35" width="7" height="7" fill="#eeeeee" opacity="0.3"/>
  <rect x="273" y="35" width="7" height="7" fill="#eeeeee" opacity="0.3"/>
  <rect x="280" y="35" width="7" height="7" fill="#eeeeee" opacity="0.3"/>
  <rect x="301" y="35" width="7" height="7" fill="#e4e4e4" opacity="0.3"/>
  <rect x="308" y="35" width="7" height="7" fill="#e4e4e4" opacity="1.0"/>
  <rect x="315" y="35" width="7" height="7" fill="#e4e4e4" opacity="1.0"/>
  <rect x="322" y="35" width="7" height="7" fill="#e4e4e4" opacity="1.0"/>
  <rect x="329" y="35" width="7" height="7" fill="#dadada" opacity="0.3"/>
  <rect x="336" y="35" width="7" height="7" fill="#dadada" opacity="0.3"/>
  <rect x="343" y="35" width="7" height="7" fill="#dadada" opacity="0.3"/>
  <rect x="371" y="35" width="7" height="7" fill="#d0d0d0" opacity="1.0"/>
  <rect x="378" y="35" width="7" height="7" fill="#d0d0d0" opacity="1.0"/>
  <rect x="385" y="35" width="7" height="7" fill="#d0d0d0" opacity="1.0"/>
  <rect x="392" y="35" width="7" height="7" fill="#c6c6c6" opacity="0.3"/>
  <rect x="399" y="35" width="7" height="7" fill="#c6c6c6" opacity="0.3"/>
  <rect x="406" y="35" width="7" height="7" fill="#c6c6c6" opacity="1.0"/>
  <rect x="413" y="35" width="7" height="7" fill="#c6c6c6" opacity="1.0"/>
  <rect x="420" y="35" width="7" height="7" fill="#c6c6c6" opacity="1.0"/>
  <rect x="434" y="35" width="7" height="7" fill="#bcbcbc" opacity="0.3"/>
  <rect x="441" y="35" width="7" height="7" fill="#bcbcbc" opacity="1.0"/>
  <rect x="448" y="35" width="7" height="7" fill="#bcbcbc" opacity="1.0"/>
  <rect x="455" y="35" width="7" height="7" fill="#b2b2b2" opacity="1.0"/>
  <rect x="476" y="35" width="7" height="7" fill="#b2b2b2" opacity="1.0"/>
  <rect x="483" y="35" width="7" height="7" fill="#a8a8a8" opacity="1.0"/>
  <rect x="490" y="35" width="7" height="7" fill="#a8a8a8" opacity="1.0"/>
  <rect x="511" y="35" width="7" height="7" fill="#a8a8a8" opacity="0.3"/>
  <rect x="518" y="35" width="7" height="7" fill="#9e9e9e" opacity="1.0"/>
  <rect x="525" y="35" width="7" height="7" fill="#9e9e9e" opacity="1.0"/>
  <rect x="532" y="35" width="7" height="7" fill="#9e9e9e" opacity="1.0"/>
  <rect x="546" y="35" width="7" height="7" fill="#949494" opacity="1.0"/>
  <rect x="553" y="35" width="7" height="7" fill="#949494" opacity="1.0"/>
  <rect x="560" y="35" width="7" height="7" fill="#949494" opacity="1.0"/>
  <rect x="7" y="42" width="7" height="7" fill="#949494" opacity="1.0"/>
  <rect x="14" y="42" width="7" height="7" fill="#949494" opacity="1.0"/>
  <rect x="21" y="42" width="7" height="7" fill="#9e9e9e" opacity="1.0"/>
  <rect x="28" y="42" width="7" height="7" fill="#9e9e9e" opacity="0.3"/>
  <rect x="105" y="42" width="7" height="7" fill="#b2b2b2" opacity="1.0"/>
  <rect x="112" y="42" width="7" height="7" fill="#bcbcbc" opacity="1.0"/>
  <rect x="119" y="42" width="7" height="7" fill="#bcbcbc" opacity="1.0"/>
  <rect x="126" y="42" width="7" height="7" fill="#bcbcbc" opacity="1.0"/>
  <rect x="133" y="42" width="7" height="7" fill="#bcbcbc" opacity="1.0"/>
  <rect x="175" y="42" width="7" height="7" fill="#d0d0d0" opacity="1.0"/>
  <rect x="182" y="42" width="7" height="7" fill="#d0d0d0" opacity="1.0"/>
  <rect x="189" y="42" width="7" height="7" fill="#d0d0d0" opacity="1.0"/>
  <rect x="196" y="42" width="7" height="7" fill="#d0d0d0" opacity="1.0"/>
  <rect x="203" y="42" width="7" height="7" fill="#dadada" opacity="1.0"/>
  <rect x="238" y="42" width="7" height="7" fill="#e4e4e4" opacity="0.3"/>
  <rect x="245" y="42" width="7" height="7" fill="#e4e4e4" opacity="0.3"/>
  <rect x="252" y="42" width="7" height="7" fill="#e4e4e4" opacity="1.0"/>
  <rect x="259" y="42" width="7" height="7" fill="#e4e4e4" opacity="1.0"/>
  <rect x="266" y="42" width="7" height="7" fill="#eeeeee" opacity="1.0"/>
  <rect x="273" y="42" width="7" height="7" fill="#eeeeee" opacity="1.0"/>
  <rect x="280" y="42" width="7" height="7" fill="#eeeeee" opacity="1.0"/>
  <rect x="287" y="42" width="7" height="7" fill="#eeeeee" opacity="1.0"/>
  <rect x="301" y="42" width="7" height="7" fill="#e4e4e4" opacity="0.3"/>
  <rect x="308" y="42" width="7" height="7" fill="#e4e4e4" opacity="0.3"/>
  <rect x="315" y="42" width="7" height="7" fill="#e4e4e4" opacity="1.0"/>
  <rect x="322" y="42" width="7" height="7" fill="#e4e4e4" opacity="1.0"/>
  <rect x="329" y="42" width="7" height="7" fill="#dadada" opacity="1.0"/>
  <rect x="336" y="42" width="7" height="7" fill="#dadada" opacity="1.0"/>
  <rect x="343" y="42" width="7" height="7" fill="#dadada" opacity="1.0"/>
  <rect x="350" y="42" width="7" height="7" fill="#dadada" opacity="1.0"/>
  <rect x="364" y="42" width="7" height="7" fill="#d0d0d0" opacity="0.3"/>
  <rect x="371" y="42" width="7" height="7" fill="#d0d0d0" opacity="0.3"/>
  <rect x="378" y="42" width="7" height="7" fill="#d0d0d0" opacity="1.0"/>
  <rect x="385" y="42" width="7" height="7" fill="#d0d0d0" opacity="1.0"/>
  <rect x="392" y="42" width="7" height="7" fill="#c6c6c6" opacity="1.0"/>
  <rect x="399" y="42" width="7" height="7" fill="#c6c6c6" opacity="1.0"/>
  <rect x="406" y="42" width="7" height="7" fill="#c6c6c6" opacity="1.0"/>
  <rect x="413" y="42" width="7" height="7" fill="#c6c6c6" opacity="1.0"/>
  <rect x="420" y="42" width="7" height="7" fill="#c6c6c6" opacity="1.0"/>
  <rect x="427" y="42" width="7" height="7" fill="#bcbcbc" opacity="1.0"/>
  <rect x="434" y="42" width="7" height="7" fill="#bcbcbc" opacity="0.3"/>
  <rect x="441" y="42" width="7" height="7" fill="#bcbcbc" opacity="0.3"/>
  <rect x="448" y="42" width="7" height="7" fill="#bcbcbc" opacity="1.0"/>
  <rect x="455" y="42" width="7" height="7" fill="#b2b2b2" opacity="1.0"/>
  <rect x="462" y="42" width="7" height="7" fill="#b2b2b2" opacity="1.0"/>
  <rect x="469" y="42" width="7" height="7" fill="#b2b2b2" opacity="1.0"/>
  <rect x="476" y="42" width="7" height="7" fill="#b2b2b2" opacity="1.0"/>
  <rect x="483" y="42" width="7" height="7" fill="#a8a8a8" opacity="1.0"/>
  <rect x="511" y="42" width="7" height="7" fill="#a8a8a8" opacity="0.3"/>
  <rect x="518" y="42" width="7" height="7" fill="#9e9e9e" opacity="0.3"/>
  <rect x="525" y="42" width="7" height="7" fill="#9e9e9e" opacity="1.0"/>
  <rect x="532" y="42" width="7" height="7" fill="#9e9e9e" opacity="1.0"/>
  <rect x="539" y="42" width="7" height="7" fill="#9e9e9e" opacity="1.0"/>
  <rect x="546" y="42" width="7" height="7" fill="#949494" opacity="1.0"/>
  <rect x="553" y="42" width="7" height="7" fill="#949494" opacity="1.0"/>
  <rect x="0" y="49" width="7" height="7" fill="#949494" opacity="0.3"/>
  <rect x="7" y="49" width="7" height="7" fill="#949494" opacity="0.3"/>
  <rect x="14" y="49" width="7" height="7" fill="#949494" opacity="0.3"/>
  <rect x="98" y="49" width="7" height="7" fill="#b2b2b2" opacity="0.3"/>
  <rect x="105" y="49" width="7" height="7" fill="#b2b2b2" opacity="0.3"/>
  <rect x="112" y="49" width="7" height="7" fill="#bcbcbc" opacity="0.3"/>
  <rect x="119" y="49" width="7" height="7" fill="#bcbcbc" opacity="0.3"/>
  <rect x="126" y="49" width="7" height="7" fill="#bcbcbc" opacity="0.3"/>
  <rect x="168" y="49" width="7" height="7" fill="#c6c6c6" opacity="0.3"/>
  <rect x="175" y="49" width="7" height="7" fill="#d0d0d0" opacity="0.3"/>
  <rect x="182" y="49" width="7" height="7" fill="#d0d0d0" opacity="0.3"/>
  <rect x="189" y="49" width="7" height="7" fill="#d0d0d0" opacity="0.3"/>
  <rect x="196" y="49" width="7" height="7" fill="#d0d0d0" opacity="0.3"/>
  <rect x="245" y="49" width="7" height="7" fill="#e4e4e4" opacity="0.3"/>
  <rect x="252" y="49" width="7" height="7" fill="#e4e4e4" opacity="0.3"/>
  <rect x="259" y="49" width="7" height="7" fill="#e4e4e4" opacity="0.3"/>
  <rect x="266" y="49" width="7" height="7" fill="#eeeeee" opacity="0.3"/>
  <rect x="273" y="49" width="7" height="7" fill="#eeeeee" opacity="0.3"/>
  <rect x="280" y="49" width="7" height="7" fill="#eeeeee" opacity="0.3"/>
  <rect x="308" y="49" width="7" height="7" fill="#e4e4e4" opacity="0.3"/>
  <rect x="315" y="49" width="7" height="7" fill="#e4e4e4" opacity="0.3"/>
  <rect x="322" y="49" width="7" height="7" fill="#e4e4e4" opacity="0.3"/>
  <rect x="329" y="49" width="7" height="7" fill="#dadada" opacity="0.3"/>
  <rect x="336" y="49" width="7" height="7" fill="#dadada" opacity="0.3"/>
  <rect x="343" y="49" width="7" height="7" fill="#dadada" opacity="0.3"/>
  <rect x="371" y="49" width="7" height="7" fill="#d0d0d0" opacity="0.3"/>
  <rect x="378" y="49" width="7" height="7" fill="#d0d0d0" opacity="0.3"/>
  <rect x="385" y="49" width="7" height="7" fill="#d0d0d0" opacity="0.3"/>
  <rect x="392" y="49" width="7" height="7" fill="#c6c6c6" opacity="0.3"/>
  <rect x="399" y="49" width="7" height="7" fill="#c6c6c6" opacity="0.3"/>
  <rect x="406" y="49" width="7" height="7" fill="#c6c6c6" opacity="0.3"/>
  <rect x="413" y="49" width="7" height="7" fill="#c6c6c6" opacity="0.3"/>
  <rect x="420" y="49" width="7" height="7" fill="#c6c6c6" opacity="0.3"/>
  <rect x="441" y="49" width="7" height="7" fill="#bcbcbc" opacity="0.3"/>
  <rect x="448" y="49" width="7" height="7" fill="#bcbcbc" opacity="0.3"/>
  <rect x="455" y="49" width="7" height="7" fill="#b2b2b2" opacity="0.3"/>
  <rect x="462" y="49" width="7" height="7" fill="#b2b2b2" opacity="0.3"/>
  <rect x="469" y="49" width="7" height="7" fill="#b2b2b2" opacity="0.3"/>
  <rect x="476" y="49" width="7" height="7" fill="#b2b2b2" opacity="0.3"/>
  <rect x="518" y="49" width="7" height="7" fill="#9e9e9e" opacity="0.3"/>
  <rect x="525" y="49" width="7" height="7" fill="#9e9e9e" opacity="0.3"/>
  <rect x="532" y="49" width="7" height="7" fill="#9e9e9e" opacity="0.3"/>
  <rect x="539" y="49" width="7" height="7" fill="#9e9e9e" opacity="0.3"/>
  <rect x="546" y="49" width="7" height="7" fill="#949494" opacity="0.3"/>
</svg>
